<?xml version="1.0" standalone="no"?>
<!DOCTYPE svg PUBLIC "-//W3C//DTD SVG 20010904//EN"
 "http://www.w3.org/TR/2001/REC-SVG-20010904/DTD/svg10.dtd">
<svg version="1.0" xmlns="http://www.w3.org/2000/svg"
 width="260.000000pt" height="260.000000pt" viewBox="0 0 260.000000 260.000000"
 preserveAspectRatio="xMidYMid meet">
<metadata>
Created by potrace 1.14, written by Peter Selinger 2001-2017
</metadata>
<g transform="translate(0.000000,260.000000) scale(0.100000,-0.100000)"
fill="#000000" stroke="none">
<path d="M513 2304 c-35 -19 -63 -37 -63 -39 0 -2 88 -77 195 -165 107 -89
195 -165 195 -169 0 -4 -25 -19 -55 -34 -30 -14 -73 -43 -96 -64 l-41 -37 -86
22 c-48 12 -93 22 -100 22 -7 0 -34 -12 -58 -26 l-45 -27 109 -73 109 -73 24
-123 c12 -68 24 -125 26 -128 6 -7 74 33 82 49 5 9 17 60 27 114 l18 99 40 20
c23 11 65 38 94 60 41 31 53 36 58 24 3 -8 34 -114 69 -236 34 -121 65 -223
68 -226 3 -4 33 15 66 40 54 41 61 51 68 94 16 92 7 330 -15 417 -11 44 -20
81 -19 81 1 1 31 16 67 34 193 97 370 251 370 322 0 30 -41 43 -97 29 -68 -17
-213 -88 -327 -160 l-98 -61 -81 54 c-45 30 -113 70 -152 89 -76 37 -256 107
-277 107 -7 0 -41 -16 -75 -36z"/>
<path d="M1439 1945 c-42 -8 -102 -24 -134 -36 l-57 -21 7 -47 c14 -96 11 -93
58 -60 68 47 151 62 302 57 147 -6 182 -16 191 -53 7 -27 31 -45 61 -45 11 0
32 -13 48 -30 17 -18 39 -30 54 -30 18 0 36 -12 57 -36 16 -20 45 -42 64 -48
28 -9 36 -18 43 -49 8 -31 15 -39 38 -44 30 -6 34 -12 44 -80 5 -29 13 -44 26
-48 10 -4 22 -18 25 -33 9 -44 14 -55 21 -49 10 11 33 -14 33 -34 0 -11 5 -19
10 -19 6 0 10 9 10 20 0 11 4 20 8 20 8 0 23 -73 37 -181 9 -69 -12 -213 -44
-306 -28 -82 -102 -213 -139 -246 -19 -17 -21 -17 -47 7 -22 21 -25 28 -15 46
6 12 21 25 33 31 17 7 13 8 -19 4 -33 -4 -45 -1 -60 16 -15 17 -27 20 -59 16
-29 -4 -45 -1 -58 11 -11 10 -41 18 -80 20 -56 3 -66 1 -109 -28 -27 -18 -48
-40 -48 -49 0 -9 -11 -32 -25 -51 -14 -19 -25 -47 -25 -66 0 -27 3 -31 23 -27
34 7 80 -35 79 -73 0 -60 -22 -122 -45 -128 -56 -13 -179 -17 -250 -7 -186 26
-325 97 -463 235 -76 77 -99 107 -138 186 -64 132 -86 225 -86 369 0 182 27
274 114 396 41 58 41 55 20 124 l-15 53 -31 -28 c-93 -88 -168 -235 -193 -379
-86 -493 226 -960 707 -1059 99 -20 267 -20 366 0 293 60 540 265 655 544 43
105 58 177 64 305 11 255 -70 471 -247 658 -163 174 -380 271 -630 282 -69 3
-131 0 -181 -10z"/>
<path d="M221 1605 c-84 -57 -157 -107 -162 -112 -4 -4 0 -19 10 -32 l18 -23
169 112 c93 62 171 115 174 117 5 4 -41 43 -50 42 -3 0 -74 -47 -159 -104z"/>
<path d="M1723 1613 l-38 -36 34 -14 c18 -8 35 -23 38 -33 3 -11 12 -20 19
-20 8 0 18 -8 21 -17 11 -29 64 -75 80 -69 8 3 17 6 19 6 2 0 4 16 4 35 0 22
6 38 15 41 25 10 19 52 -7 56 -15 2 -24 11 -26 26 -2 12 -10 22 -18 22 -8 0
-32 9 -54 20 -22 11 -42 20 -44 20 -3 0 -23 -17 -43 -37z"/>
<path d="M320 1514 c-96 -64 -179 -120 -184 -125 -5 -5 -2 -19 8 -33 l16 -26
185 123 c106 70 185 129 185 138 0 14 -18 39 -30 39 -3 0 -84 -52 -180 -116z"/>
<path d="M1572 1588 c-16 -16 -15 -39 1 -35 23 4 -4 -120 -29 -130 -28 -11
-62 6 -72 37 -9 24 -17 30 -39 30 -16 0 -34 5 -41 12 -9 9 -13 5 -18 -19 -6
-31 -6 -31 -34 -15 -18 10 -33 31 -41 57 l-12 40 -14 -100 c-9 -69 -20 -109
-34 -128 -14 -20 -19 -37 -15 -54 8 -30 -13 -93 -36 -111 -21 -15 -24 -63 -6
-95 6 -12 31 -44 55 -71 28 -31 43 -57 43 -75 0 -34 23 -67 61 -86 20 -11 29
-23 29 -41 0 -17 7 -27 24 -33 13 -5 26 -17 29 -25 4 -11 19 -16 46 -16 26 0
41 -5 45 -16 4 -10 16 -14 38 -12 28 3 32 0 40 -28 4 -18 15 -35 24 -38 14 -5
16 -1 10 25 -3 17 -6 40 -6 50 0 11 -10 23 -24 29 -18 7 -23 14 -19 29 4 16 1
21 -15 21 -12 0 -24 -4 -27 -10 -12 -19 -35 -10 -55 23 -26 42 -26 91 1 118
18 18 28 20 82 14 39 -4 66 -12 72 -22 6 -8 18 -25 28 -37 l18 -21 -6 23 c-11
39 4 88 34 119 16 15 31 39 33 53 2 17 10 26 26 28 19 3 22 9 22 47 0 29 5 45
15 49 9 3 15 18 15 40 0 25 5 35 19 39 11 2 24 0 30 -6 8 -8 11 -6 11 5 0 24
-28 48 -55 48 -14 0 -25 7 -27 18 -4 15 -12 18 -37 14 -38 -5 -40 10 -5 44 24
25 24 27 7 40 -10 7 -28 14 -41 14 -14 0 -26 8 -31 22 l-8 22 -12 -21 c-14
-28 -13 -89 3 -180 7 -40 11 -75 8 -78 -14 -14 -33 -2 -46 29 -13 32 -18 35
-63 38 -48 3 -48 3 -45 36 5 52 39 102 69 102 23 0 25 3 19 30 -4 22 -1 32 9
36 12 5 12 9 -1 30 -20 29 -11 74 14 74 15 1 15 2 -2 15 -24 18 -48 19 -64 3z"/>
<path d="M377 1395 c-92 -61 -170 -114 -173 -118 -3 -3 2 -17 11 -31 l17 -25
164 110 c163 109 173 119 156 160 -6 13 -38 -5 -175 -96z"/>
</g>
</svg>
